<svg width="61" height="61" viewBox="0 0 61 61" fill="none" xmlns="http://www.w3.org/2000/svg">
<path d="M20.3333 48.9324C20.1297 48.9324 19.926 48.8815 19.7393 48.7796C19.3659 48.576 19.1452 48.1686 19.1452 47.7443V13.2727C19.1452 12.8484 19.3659 12.458 19.7393 12.2373C20.1127 12.0337 20.5709 12.0337 20.9274 12.2373L50.3411 29.4816C50.6975 29.7023 50.9352 30.0927 50.9352 30.5C50.9352 30.9074 50.7145 31.3147 50.3411 31.5184L20.9274 48.7627C20.7407 48.8815 20.537 48.9324 20.3333 48.9324ZM21.5214 15.3434V45.6736L47.4048 30.517L21.5214 15.3434Z" fill="white"/>
<path d="M30.5 61C13.68 61 0 47.32 0 30.5C0 13.68 13.68 0 30.5 0C47.32 0 61 13.68 61 30.5C61 47.32 47.32 61 30.5 61ZM30.5 2.37618C14.9869 2.37618 2.37618 14.9869 2.37618 30.5C2.37618 46.0131 14.9869 58.6238 30.5 58.6238C46.0131 58.6238 58.6238 46.0131 58.6238 30.5C58.6238 14.9869 46.0131 2.37618 30.5 2.37618Z" fill="white"/>
</svg>
