<svg width="119" height="119" viewBox="0 0 119 119" fill="none" xmlns="http://www.w3.org/2000/svg">
<path d="M39.6667 95.4582C39.2693 95.4582 38.872 95.3589 38.5078 95.1602C37.7793 94.7629 37.3489 93.9683 37.3489 93.1405V25.8926C37.3489 25.0648 37.7793 24.3033 38.5078 23.8728C39.2362 23.4755 40.1302 23.4755 40.8255 23.8728L98.2065 57.5133C98.9018 57.9438 99.3653 58.7053 99.3653 59.5C99.3653 60.2946 98.9349 61.0893 98.2065 61.4866L40.8255 95.1271C40.4613 95.3589 40.064 95.4582 39.6667 95.4582ZM41.9844 29.9321V89.101L92.4783 59.5331L41.9844 29.9321Z" fill="white"/>
<path d="M59.5 119C26.6873 119 0 92.3127 0 59.5C0 26.6873 26.6873 0 59.5 0C92.3127 0 119 26.6873 119 59.5C119 92.3127 92.3127 119 59.5 119ZM59.5 4.6355C29.2368 4.6355 4.6355 29.2368 4.6355 59.5C4.6355 89.7632 29.2368 114.364 59.5 114.364C89.7632 114.364 114.364 89.7632 114.364 59.5C114.364 29.2368 89.7632 4.6355 59.5 4.6355Z" fill="white"/>
</svg>
