<svg width="18" height="18" viewBox="0 0 18 18" fill="none" xmlns="http://www.w3.org/2000/svg">

<symbol id="search">
<g clip-path="url(#clip0)">
<path d="M8.35274 16.6747C3.72945 16.6747 0 12.9452 0 8.35274C0 3.76027 3.72945 0 8.35274 0C12.976 0 16.7055 3.72945 16.7055 8.35274C16.7055 12.976 12.9452 16.6747 8.35274 16.6747ZM8.35274 2.77397C5.27055 2.77397 2.77397 5.27055 2.77397 8.35274C2.77397 11.4349 5.27055 13.9315 8.35274 13.9315C11.4349 13.9315 13.9007 11.4041 13.9007 8.35274C13.9007 5.30137 11.4041 2.77397 8.35274 2.77397Z" fill="black"/>
<path d="M16.613 17.7226C16.2431 17.7226 15.9041 17.5994 15.6267 17.322L12.3904 14.1165C11.8356 13.5617 11.8356 12.6987 12.3904 12.1439C12.9452 11.5891 13.8082 11.5891 14.363 12.1439L17.5993 15.3802C18.1541 15.935 18.1541 16.798 17.5993 17.3528C17.3219 17.5994 16.952 17.7226 16.613 17.7226Z" fill="black"/>
</g>
<defs>
<clipPath id="clip0">
<rect width="18" height="17.7226" fill="white"/>
</clipPath>
</defs>
</symbol>

<symbol id="twitter">
<path d="M17.9434 1.75472C17.3774 2.03774 16.7547 2.15094 16.1321 2.26415C16.4151 2.26415 16.8679 1.69811 17.0377 1.5283C17.3208 1.18868 17.5472 0.849057 17.6604 0.45283C17.6604 0.396226 17.6604 0.396226 17.6604 0.339623C17.6038 0.339623 17.6038 0.339623 17.5472 0.339623C16.8679 0.735849 16.1321 0.962264 15.3962 1.18868C15.3396 1.18868 15.283 1.18868 15.2264 1.13208C15.1698 1.07547 15.1132 1.01887 15.0566 0.962264C14.717 0.679245 14.3774 0.45283 14.0377 0.339623C13.4717 0.0566038 12.9057 0 12.3962 0C11.8868 0.0566038 11.3208 0.169811 10.8679 0.45283C10.4151 0.679245 9.96227 1.01887 9.62265 1.4717C9.28303 1.92453 9.00001 2.37736 8.8868 2.9434C8.77359 3.45283 8.77359 3.96226 8.8302 4.4717C8.8302 4.58491 8.8302 4.58491 8.77359 4.58491C5.8302 4.13208 3.33963 3.0566 1.3585 0.792453C1.24529 0.679245 1.18869 0.679245 1.13208 0.792453C0.283027 2.09434 0.679254 4.18868 1.75473 5.26415C1.92454 5.37736 2.09435 5.49057 2.26416 5.60377C2.20756 5.60377 1.47171 5.54717 0.849065 5.20755C0.735858 5.15094 0.735858 5.20755 0.735858 5.26415C0.735858 5.37736 0.735858 5.54717 0.735858 5.71698C0.905669 7.01887 1.81133 8.26415 3.05661 8.77359C3.22642 8.83019 3.39624 8.88679 3.50944 8.9434C3.22642 9 2.94341 9.0566 2.09435 9C1.98114 9 1.92454 9.0566 1.98114 9.11321C2.60378 10.8113 3.96227 11.3208 4.92454 11.6038C5.03774 11.6038 5.20756 11.6038 5.32076 11.6604C4.98114 12.1698 3.84907 12.566 3.28303 12.7359C2.32076 13.0755 1.24529 13.2453 0.226424 13.1321C0.0566123 13.1321 8.55327e-06 13.1321 8.55327e-06 13.1321C-0.0565952 13.1321 8.55513e-06 13.1887 0.0566123 13.2453C0.283027 13.3585 0.452839 13.5283 0.679254 13.6415C1.3585 13.9811 2.03774 14.2642 2.71699 14.434C6.39624 15.4528 10.5283 14.717 13.3019 11.9434C15.4528 9.79245 16.2453 6.79245 16.2453 3.84906C16.2453 3.73585 16.3585 3.67925 16.4717 3.62264C17.0377 3.22642 17.4906 2.71698 17.8868 2.15094C18 2.03774 18 1.92453 18 1.86792C18 1.75472 18 1.75472 17.9434 1.75472Z" fill="#33CCFF"/>
</symbol>
<symbol id="telegram">
<path d="M8.47455 11.8623L8.11598 16.8864C8.62641 16.8864 8.84999 16.6671 9.11575 16.4013L11.5118 14.1107L16.4769 17.747C17.3881 18.2532 18.0293 17.9875 18.2739 16.9075L21.5348 1.63264C21.8259 0.291178 21.0497 -0.236125 20.1638 0.0971305L1.00373 7.43296C-0.303984 7.93917 -0.282892 8.66896 0.78015 8.998L5.67774 10.5208L17.0548 3.40015C17.5906 3.04581 18.0757 3.23985 17.6749 3.59842L8.47455 11.8623Z" fill="#039BE5"/>
</symbol>
<symbol id="facebook">
<path d="M1.87383 0H16.1227C17.1598 0 18 0.840234 18 1.87383V16.1227C18 17.1598 17.1598 17.9965 16.1262 17.9965H1.87383C0.840234 18 0 17.1598 0 16.1262V1.87383C0 0.840234 0.840234 0 1.87383 0Z" fill="#2196F3"/>
<path d="M13.8762 5.24893H15.3774C15.5848 5.24893 15.7535 5.08018 15.7535 4.87275V2.62275C15.7535 2.41533 15.5848 2.24658 15.3774 2.24658H13.8762C11.5981 2.24658 9.75236 4.09228 9.75236 6.37041V8.24424H7.87501C7.66759 8.24424 7.49884 8.41299 7.49884 8.62041V10.8704C7.49884 11.0778 7.66759 11.2466 7.87501 11.2466H9.74884V17.9966H12.7477V11.2501H14.625C14.7867 11.2501 14.9309 11.1481 14.9801 10.9935L15.7289 8.74346C15.7957 8.54658 15.6867 8.33564 15.4934 8.26885C15.4547 8.25478 15.416 8.25127 15.3739 8.25127H12.7477V6.37744C12.7512 5.75518 13.2539 5.24893 13.8762 5.24893Z" fill="#FAFAFA"/>
</symbol>
<symbol id="wifi">
<g clip-path="url(#clip0)">
<path d="M0.376172 0C0.16875 0 0 0.16875 0 0.376172V3.375C0 3.58242 0.16875 3.75117 0.376172 3.75117C8.02617 3.75117 14.2523 9.97383 14.2523 17.6273C14.2523 17.8348 14.4211 18.0035 14.6285 18.0035H17.6273C17.8348 18.0035 18.0035 17.8348 18.0035 17.6273C18 7.90664 10.0934 0 0.376172 0Z" fill="black"/>
<path d="M0.376172 6.00122C0.16875 6.00122 0 6.16997 0 6.37739V9.37622C0 9.58364 0.16875 9.75239 0.376172 9.75239C4.71797 9.75239 8.25117 13.2856 8.25117 17.6274C8.25117 17.8348 8.41992 18.0036 8.62734 18.0036H11.6262C11.8336 18.0036 12.0023 17.8348 12.0023 17.6274C11.9988 11.2149 6.78516 6.00122 0.376172 6.00122Z" fill="black"/>
<path d="M2.62617 17.9999C4.07657 17.9999 5.25234 16.8241 5.25234 15.3737C5.25234 13.9233 4.07657 12.7476 2.62617 12.7476C1.17578 12.7476 0 13.9233 0 15.3737C0 16.8241 1.17578 17.9999 2.62617 17.9999Z" fill="black"/>
</g>
<defs>
<clipPath id="clip0">
<rect width="18" height="18" fill="white"/>
</clipPath>
</defs>
</symbol>


</svg>
