<svg fill="none" xmlns="http://www.w3.org/2000/svg">
<symbol  width="18" height="18" viewBox="0 0 18 18" id="search">
<g clip-path="url(#clip0)">
<path d="M8.35274 16.6747C3.72945 16.6747 0 12.9452 0 8.35274C0 3.76027 3.72945 0 8.35274 0C12.976 0 16.7055 3.72945 16.7055 8.35274C16.7055 12.976 12.9452 16.6747 8.35274 16.6747ZM8.35274 2.77397C5.27055 2.77397 2.77397 5.27055 2.77397 8.35274C2.77397 11.4349 5.27055 13.9315 8.35274 13.9315C11.4349 13.9315 13.9007 11.4041 13.9007 8.35274C13.9007 5.30137 11.4041 2.77397 8.35274 2.77397Z" fill="black"/>
<path d="M16.613 17.7226C16.2431 17.7226 15.9041 17.5994 15.6267 17.322L12.3904 14.1165C11.8356 13.5617 11.8356 12.6987 12.3904 12.1439C12.9452 11.5891 13.8082 11.5891 14.363 12.1439L17.5993 15.3802C18.1541 15.935 18.1541 16.798 17.5993 17.3528C17.3219 17.5994 16.952 17.7226 16.613 17.7226Z" fill="black"/>
</g>
<defs>
<clipPath id="clip0">
<rect width="18" height="17.7226" fill="white"/>
</clipPath>
</defs>
</symbol>

<symbol  width="18" height="18" viewBox="0 0 18 18" id="twitter">
<path d="M17.9434 1.75472C17.3774 2.03774 16.7547 2.15094 16.1321 2.26415C16.4151 2.26415 16.8679 1.69811 17.0377 1.5283C17.3208 1.18868 17.5472 0.849057 17.6604 0.45283C17.6604 0.396226 17.6604 0.396226 17.6604 0.339623C17.6038 0.339623 17.6038 0.339623 17.5472 0.339623C16.8679 0.735849 16.1321 0.962264 15.3962 1.18868C15.3396 1.18868 15.283 1.18868 15.2264 1.13208C15.1698 1.07547 15.1132 1.01887 15.0566 0.962264C14.717 0.679245 14.3774 0.45283 14.0377 0.339623C13.4717 0.0566038 12.9057 0 12.3962 0C11.8868 0.0566038 11.3208 0.169811 10.8679 0.45283C10.4151 0.679245 9.96227 1.01887 9.62265 1.4717C9.28303 1.92453 9.00001 2.37736 8.8868 2.9434C8.77359 3.45283 8.77359 3.96226 8.8302 4.4717C8.8302 4.58491 8.8302 4.58491 8.77359 4.58491C5.8302 4.13208 3.33963 3.0566 1.3585 0.792453C1.24529 0.679245 1.18869 0.679245 1.13208 0.792453C0.283027 2.09434 0.679254 4.18868 1.75473 5.26415C1.92454 5.37736 2.09435 5.49057 2.26416 5.60377C2.20756 5.60377 1.47171 5.54717 0.849065 5.20755C0.735858 5.15094 0.735858 5.20755 0.735858 5.26415C0.735858 5.37736 0.735858 5.54717 0.735858 5.71698C0.905669 7.01887 1.81133 8.26415 3.05661 8.77359C3.22642 8.83019 3.39624 8.88679 3.50944 8.9434C3.22642 9 2.94341 9.0566 2.09435 9C1.98114 9 1.92454 9.0566 1.98114 9.11321C2.60378 10.8113 3.96227 11.3208 4.92454 11.6038C5.03774 11.6038 5.20756 11.6038 5.32076 11.6604C4.98114 12.1698 3.84907 12.566 3.28303 12.7359C2.32076 13.0755 1.24529 13.2453 0.226424 13.1321C0.0566123 13.1321 8.55327e-06 13.1321 8.55327e-06 13.1321C-0.0565952 13.1321 8.55513e-06 13.1887 0.0566123 13.2453C0.283027 13.3585 0.452839 13.5283 0.679254 13.6415C1.3585 13.9811 2.03774 14.2642 2.71699 14.434C6.39624 15.4528 10.5283 14.717 13.3019 11.9434C15.4528 9.79245 16.2453 6.79245 16.2453 3.84906C16.2453 3.73585 16.3585 3.67925 16.4717 3.62264C17.0377 3.22642 17.4906 2.71698 17.8868 2.15094C18 2.03774 18 1.92453 18 1.86792C18 1.75472 18 1.75472 17.9434 1.75472Z" fill="#33CCFF"/>
</symbol>
<symbol  width="18" height="18" viewBox="0 0 18 18" id="telegram">
<path d="M8.47455 11.8623L8.11598 16.8864C8.62641 16.8864 8.84999 16.6671 9.11575 16.4013L11.5118 14.1107L16.4769 17.747C17.3881 18.2532 18.0293 17.9875 18.2739 16.9075L21.5348 1.63264C21.8259 0.291178 21.0497 -0.236125 20.1638 0.0971305L1.00373 7.43296C-0.303984 7.93917 -0.282892 8.66896 0.78015 8.998L5.67774 10.5208L17.0548 3.40015C17.5906 3.04581 18.0757 3.23985 17.6749 3.59842L8.47455 11.8623Z" fill="#039BE5"/>
</symbol>
<symbol  width="18" height="18" viewBox="0 0 18 18" id="facebook">
<path d="M1.87383 0H16.1227C17.1598 0 18 0.840234 18 1.87383V16.1227C18 17.1598 17.1598 17.9965 16.1262 17.9965H1.87383C0.840234 18 0 17.1598 0 16.1262V1.87383C0 0.840234 0.840234 0 1.87383 0Z" fill="#2196F3"/>
<path d="M13.8762 5.24893H15.3774C15.5848 5.24893 15.7535 5.08018 15.7535 4.87275V2.62275C15.7535 2.41533 15.5848 2.24658 15.3774 2.24658H13.8762C11.5981 2.24658 9.75236 4.09228 9.75236 6.37041V8.24424H7.87501C7.66759 8.24424 7.49884 8.41299 7.49884 8.62041V10.8704C7.49884 11.0778 7.66759 11.2466 7.87501 11.2466H9.74884V17.9966H12.7477V11.2501H14.625C14.7867 11.2501 14.9309 11.1481 14.9801 10.9935L15.7289 8.74346C15.7957 8.54658 15.6867 8.33564 15.4934 8.26885C15.4547 8.25478 15.416 8.25127 15.3739 8.25127H12.7477V6.37744C12.7512 5.75518 13.2539 5.24893 13.8762 5.24893Z" fill="#FAFAFA"/>
</symbol>
<symbol  width="18" height="18" viewBox="0 0 18 18" id="wifi">
<g clip-path="url(#clip0)">
<path d="M0.376172 0C0.16875 0 0 0.16875 0 0.376172V3.375C0 3.58242 0.16875 3.75117 0.376172 3.75117C8.02617 3.75117 14.2523 9.97383 14.2523 17.6273C14.2523 17.8348 14.4211 18.0035 14.6285 18.0035H17.6273C17.8348 18.0035 18.0035 17.8348 18.0035 17.6273C18 7.90664 10.0934 0 0.376172 0Z" fill="black"/>
<path d="M0.376172 6.00122C0.16875 6.00122 0 6.16997 0 6.37739V9.37622C0 9.58364 0.16875 9.75239 0.376172 9.75239C4.71797 9.75239 8.25117 13.2856 8.25117 17.6274C8.25117 17.8348 8.41992 18.0036 8.62734 18.0036H11.6262C11.8336 18.0036 12.0023 17.8348 12.0023 17.6274C11.9988 11.2149 6.78516 6.00122 0.376172 6.00122Z" fill="black"/>
<path d="M2.62617 17.9999C4.07657 17.9999 5.25234 16.8241 5.25234 15.3737C5.25234 13.9233 4.07657 12.7476 2.62617 12.7476C1.17578 12.7476 0 13.9233 0 15.3737C0 16.8241 1.17578 17.9999 2.62617 17.9999Z" fill="black"/>
</g>
<defs>
<clipPath id="clip0">
<rect width="18" height="18" fill="white"/>
</clipPath>
</defs>
</symbol>

<symbol  width="15" height="15" viewBox="0 0 20 20" id="sm-search">
<g clip-path="url(#clip0)">
<path d="M8.35274 16.6747C3.72945 16.6747 0 12.9452 0 8.35274C0 3.76027 3.72945 0 8.35274 0C12.976 0 16.7055 3.72945 16.7055 8.35274C16.7055 12.976 12.9452 16.6747 8.35274 16.6747ZM8.35274 2.77397C5.27055 2.77397 2.77397 5.27055 2.77397 8.35274C2.77397 11.4349 5.27055 13.9315 8.35274 13.9315C11.4349 13.9315 13.9007 11.4041 13.9007 8.35274C13.9007 5.30137 11.4041 2.77397 8.35274 2.77397Z" fill="black"/>
<path d="M16.613 17.7226C16.2431 17.7226 15.9041 17.5994 15.6267 17.322L12.3904 14.1165C11.8356 13.5617 11.8356 12.6987 12.3904 12.1439C12.9452 11.5891 13.8082 11.5891 14.363 12.1439L17.5993 15.3802C18.1541 15.935 18.1541 16.798 17.5993 17.3528C17.3219 17.5994 16.952 17.7226 16.613 17.7226Z" fill="black"/>
</g>
<defs>
<clipPath id="clip0">
<rect width="18" height="17.7226" fill="white"/>
</clipPath>
</defs>
</symbol>

<symbol width="15" height="15" viewBox="0 0 20 20"  id="sm-twitter">
<path d="M17.9434 1.75472C17.3774 2.03774 16.7547 2.15094 16.1321 2.26415C16.4151 2.26415 16.8679 1.69811 17.0377 1.5283C17.3208 1.18868 17.5472 0.849057 17.6604 0.45283C17.6604 0.396226 17.6604 0.396226 17.6604 0.339623C17.6038 0.339623 17.6038 0.339623 17.5472 0.339623C16.8679 0.735849 16.1321 0.962264 15.3962 1.18868C15.3396 1.18868 15.283 1.18868 15.2264 1.13208C15.1698 1.07547 15.1132 1.01887 15.0566 0.962264C14.717 0.679245 14.3774 0.45283 14.0377 0.339623C13.4717 0.0566038 12.9057 0 12.3962 0C11.8868 0.0566038 11.3208 0.169811 10.8679 0.45283C10.4151 0.679245 9.96227 1.01887 9.62265 1.4717C9.28303 1.92453 9.00001 2.37736 8.8868 2.9434C8.77359 3.45283 8.77359 3.96226 8.8302 4.4717C8.8302 4.58491 8.8302 4.58491 8.77359 4.58491C5.8302 4.13208 3.33963 3.0566 1.3585 0.792453C1.24529 0.679245 1.18869 0.679245 1.13208 0.792453C0.283027 2.09434 0.679254 4.18868 1.75473 5.26415C1.92454 5.37736 2.09435 5.49057 2.26416 5.60377C2.20756 5.60377 1.47171 5.54717 0.849065 5.20755C0.735858 5.15094 0.735858 5.20755 0.735858 5.26415C0.735858 5.37736 0.735858 5.54717 0.735858 5.71698C0.905669 7.01887 1.81133 8.26415 3.05661 8.77359C3.22642 8.83019 3.39624 8.88679 3.50944 8.9434C3.22642 9 2.94341 9.0566 2.09435 9C1.98114 9 1.92454 9.0566 1.98114 9.11321C2.60378 10.8113 3.96227 11.3208 4.92454 11.6038C5.03774 11.6038 5.20756 11.6038 5.32076 11.6604C4.98114 12.1698 3.84907 12.566 3.28303 12.7359C2.32076 13.0755 1.24529 13.2453 0.226424 13.1321C0.0566123 13.1321 8.55327e-06 13.1321 8.55327e-06 13.1321C-0.0565952 13.1321 8.55513e-06 13.1887 0.0566123 13.2453C0.283027 13.3585 0.452839 13.5283 0.679254 13.6415C1.3585 13.9811 2.03774 14.2642 2.71699 14.434C6.39624 15.4528 10.5283 14.717 13.3019 11.9434C15.4528 9.79245 16.2453 6.79245 16.2453 3.84906C16.2453 3.73585 16.3585 3.67925 16.4717 3.62264C17.0377 3.22642 17.4906 2.71698 17.8868 2.15094C18 2.03774 18 1.92453 18 1.86792C18 1.75472 18 1.75472 17.9434 1.75472Z" fill="#33CCFF"/>
</symbol>
<symbol  width="15" height="15" viewBox="0 0 20 20"  id="sm-telegram">
<path d="M8.47455 11.8623L8.11598 16.8864C8.62641 16.8864 8.84999 16.6671 9.11575 16.4013L11.5118 14.1107L16.4769 17.747C17.3881 18.2532 18.0293 17.9875 18.2739 16.9075L21.5348 1.63264C21.8259 0.291178 21.0497 -0.236125 20.1638 0.0971305L1.00373 7.43296C-0.303984 7.93917 -0.282892 8.66896 0.78015 8.998L5.67774 10.5208L17.0548 3.40015C17.5906 3.04581 18.0757 3.23985 17.6749 3.59842L8.47455 11.8623Z" fill="#039BE5"/>
</symbol>
<symbol  width="15" height="15" viewBox="0 0 20 20"  id="sm-facebook">
<path d="M1.87383 0H16.1227C17.1598 0 18 0.840234 18 1.87383V16.1227C18 17.1598 17.1598 17.9965 16.1262 17.9965H1.87383C0.840234 18 0 17.1598 0 16.1262V1.87383C0 0.840234 0.840234 0 1.87383 0Z" fill="#2196F3"/>
<path d="M13.8762 5.24893H15.3774C15.5848 5.24893 15.7535 5.08018 15.7535 4.87275V2.62275C15.7535 2.41533 15.5848 2.24658 15.3774 2.24658H13.8762C11.5981 2.24658 9.75236 4.09228 9.75236 6.37041V8.24424H7.87501C7.66759 8.24424 7.49884 8.41299 7.49884 8.62041V10.8704C7.49884 11.0778 7.66759 11.2466 7.87501 11.2466H9.74884V17.9966H12.7477V11.2501H14.625C14.7867 11.2501 14.9309 11.1481 14.9801 10.9935L15.7289 8.74346C15.7957 8.54658 15.6867 8.33564 15.4934 8.26885C15.4547 8.25478 15.416 8.25127 15.3739 8.25127H12.7477V6.37744C12.7512 5.75518 13.2539 5.24893 13.8762 5.24893Z" fill="#FAFAFA"/>
</symbol>
<symbol  width="15" height="15" viewBox="0 0 20 20"  id="sm-wifi">
<g clip-path="url(#clip0)">
<path d="M0.376172 0C0.16875 0 0 0.16875 0 0.376172V3.375C0 3.58242 0.16875 3.75117 0.376172 3.75117C8.02617 3.75117 14.2523 9.97383 14.2523 17.6273C14.2523 17.8348 14.4211 18.0035 14.6285 18.0035H17.6273C17.8348 18.0035 18.0035 17.8348 18.0035 17.6273C18 7.90664 10.0934 0 0.376172 0Z" fill="black"/>
<path d="M0.376172 6.00122C0.16875 6.00122 0 6.16997 0 6.37739V9.37622C0 9.58364 0.16875 9.75239 0.376172 9.75239C4.71797 9.75239 8.25117 13.2856 8.25117 17.6274C8.25117 17.8348 8.41992 18.0036 8.62734 18.0036H11.6262C11.8336 18.0036 12.0023 17.8348 12.0023 17.6274C11.9988 11.2149 6.78516 6.00122 0.376172 6.00122Z" fill="black"/>
<path d="M2.62617 17.9999C4.07657 17.9999 5.25234 16.8241 5.25234 15.3737C5.25234 13.9233 4.07657 12.7476 2.62617 12.7476C1.17578 12.7476 0 13.9233 0 15.3737C0 16.8241 1.17578 17.9999 2.62617 17.9999Z" fill="black"/>
</g>
<defs>
<clipPath id="clip0">
<rect width="15" height="15" fill="white"/>
</clipPath>
</defs>
</symbol>


<symbol width="36" height="36" viewBox="0 0 36 36"  id="footer-twitter">
<path d="M18 36C8.04396 36 0 27.8901 0 18C0 8.04396 8.04396 0 18 0C27.8901 0 36 8.04396 36 18C36 27.8901 27.8901 36 18 36ZM18 1.91209C9.16483 1.91209 1.91209 9.16483 1.91209 18C1.91209 26.8352 9.0989 34.0879 18 34.0879C26.8352 34.0879 34.0879 26.9011 34.0879 18C34.0879 9.16483 26.8352 1.91209 18 1.91209Z" fill="#636466"/>
<path d="M28.3517 11.4065C27.6923 11.7362 26.967 11.868 26.2418 11.9999C26.5714 11.934 27.0989 11.3406 27.2967 11.0768C27.6264 10.6812 27.8901 10.2856 28.022 9.82409C28.022 9.75815 28.022 9.75815 28.022 9.69222C27.9561 9.69222 27.9561 9.69222 27.8901 9.69222C27.0989 10.1538 26.2418 10.4175 25.3846 10.6812C25.3187 10.6812 25.2528 10.6812 25.1868 10.6153C25.1209 10.5494 25.055 10.4834 24.989 10.4175C24.5934 10.0878 24.1978 9.82409 23.8022 9.69222C23.2088 9.42848 22.5495 9.36255 21.9561 9.36255C21.3626 9.42848 20.7033 9.56035 20.1758 9.89002C19.6484 10.1538 19.1209 10.5494 18.7253 11.0768C18.3297 11.6043 18 12.1318 17.8681 12.7911C17.7363 13.3845 17.7363 13.9779 17.8022 14.5713C17.8022 14.7032 17.8022 14.7032 17.7363 14.7032C14.3077 14.1757 11.4066 12.923 9.09891 10.2856C8.96704 10.1538 8.96704 10.1538 8.83517 10.2856C7.84616 11.8021 8.3077 14.2417 9.56045 15.4944C9.75825 15.6263 9.89012 15.8241 10.0879 15.956C10.022 15.956 9.16484 15.89 8.43957 15.4944C8.3077 15.4285 8.3077 15.4944 8.3077 15.5604C8.3077 15.6922 8.3077 15.89 8.3077 16.0878C8.5055 17.6043 9.56045 19.0549 11.011 19.6483C11.2088 19.7142 11.4066 19.7801 11.5385 19.8461C11.2088 19.7801 10.8791 19.8461 9.89012 19.7801C9.75825 19.7801 9.69232 19.8461 9.75825 19.912C10.4835 21.89 12.0659 22.4834 13.1868 22.8131C13.3187 22.8131 13.5165 22.8131 13.6484 22.879C13.2528 23.4724 11.9341 23.934 11.2747 24.1318C10.1539 24.5274 8.90111 24.7252 7.7143 24.5933C7.51649 24.5933 7.45056 24.5933 7.45056 24.5933C7.38463 24.5933 7.45056 24.6593 7.51649 24.7252C7.78023 24.8571 7.97803 25.0549 8.24177 25.1867C9.03298 25.5823 9.82419 25.912 10.6154 26.1098C14.9011 27.2966 19.7143 26.4395 22.9451 23.2087C25.4506 20.7032 26.3736 17.2087 26.3736 13.7801C26.3736 13.6483 26.5055 13.5823 26.6374 13.5164C27.2967 13.0549 27.8242 12.4614 28.2857 11.8021C28.4176 11.6702 28.4176 11.5384 28.4176 11.4724C28.4176 11.3406 28.4176 11.4065 28.3517 11.4065Z" fill="#636466"/>
</symbol>

<symbol width="36" height="36" viewBox="0 0 36 36"  id="footer-google">
<path d="M18 36C8.04396 36 0 27.8901 0 18C0 8.04396 8.04396 0 18 0C27.8901 0 36 8.04396 36 18C36 27.8901 27.8901 36 18 36ZM18 1.91209C9.16483 1.91209 1.91209 9.16483 1.91209 18C1.91209 26.8352 9.0989 34.0879 18 34.0879C26.8352 34.0879 34.0879 26.9011 34.0879 18C34.0879 9.16483 26.8352 1.91209 18 1.91209Z" fill="#636466"/>
<path d="M18.4615 19.2527L17.6703 18.5933C17.4066 18.3955 17.0769 18.1318 17.0769 17.6043C17.0769 17.0769 17.4066 16.8131 17.7363 16.4834C18.6593 15.7582 19.6483 14.967 19.6483 13.2527C19.6483 11.5384 18.5934 10.6153 18.0659 10.2197H19.4505L20.9011 9.29663H16.4835C15.2967 9.29663 13.5165 9.56037 12.2637 10.6153C11.2747 11.4725 10.8132 12.5933 10.8132 13.6483C10.8132 15.4285 12.1319 17.2087 14.5714 17.2087C14.7692 17.2087 15.033 17.2087 15.2967 17.1428C15.1648 17.4065 15.0989 17.6703 15.0989 17.9999C15.0989 18.7252 15.4286 19.1208 15.7582 19.5164C14.7692 19.5823 12.8571 19.7142 11.4725 20.5714C10.1538 21.3626 9.75824 22.4834 9.75824 23.3406C9.75824 24.9889 11.3407 26.5714 14.5714 26.5714C18.4615 26.5714 20.5055 24.4615 20.5055 22.2856C20.3736 20.8351 19.4505 20.0439 18.4615 19.2527ZM15.4945 16.6153C13.5824 16.6153 12.6593 14.1098 12.6593 12.5933C12.6593 11.9999 12.7912 11.4065 13.1209 10.945C13.4505 10.4834 14.1099 10.2197 14.7033 10.2197C16.5494 10.2197 17.5385 12.7252 17.5385 14.3736C17.5385 14.7692 17.4725 15.4944 16.9451 16.0219C16.6813 16.3516 16.0879 16.6153 15.4945 16.6153ZM15.5604 25.7142C13.1868 25.7142 11.6044 24.5933 11.6044 22.945C11.6044 21.3626 13.0549 20.8351 13.5165 20.6373C14.4396 20.3076 15.6923 20.3076 15.8901 20.3076C16.0879 20.3076 16.2198 20.3076 16.4176 20.3076C18.1319 21.4944 18.8571 22.1538 18.8571 23.2747C18.8571 24.6593 17.6703 25.7142 15.5604 25.7142Z" fill="#636466"/>
<path d="M24.1319 16.6153V14.3735H23.011V16.6153H20.7692V17.7362H23.011V19.9779H24.1319V17.7362H26.3736V16.6153H24.1319Z" fill="#636466"/>
</symbol>

<symbol width="36" height="36" viewBox="0 0 36 36"  id="footer-telegram">
<path d="M18 36C8.04396 36 0 27.8901 0 18C0 8.04396 8.04396 0 18 0C27.8901 0 36 8.04396 36 18C36 27.8901 27.8901 36 18 36ZM18 1.91209C9.16483 1.91209 1.91209 9.16483 1.91209 18C1.91209 26.8352 9.0989 34.0879 18 34.0879C26.8352 34.0879 34.0879 26.9011 34.0879 18C34.0879 9.16483 26.8352 1.91209 18 1.91209Z" fill="#636466"/>
<path d="M15.7583 20.7692L15.4286 25.5824C15.8901 25.5824 16.1539 25.3846 16.4176 25.1209L18.7253 22.9451L23.4725 26.4396C24.3297 26.9011 24.989 26.6374 25.1868 25.6484L28.2857 11.011C28.5495 9.69231 27.8242 9.23077 26.967 9.56044L8.57144 16.4835C7.31869 16.9451 7.31869 17.6703 8.37364 18L13.055 19.4506L24 12.5934C24.5275 12.2637 24.989 12.4615 24.5934 12.7912L15.7583 20.7692Z" fill="#636466"/>
</symbol>

<symbol width="36" height="36" viewBox="0 0 36 36"  id="footer-wifi">
<path d="M18 36C8.04396 36 0 27.8901 0 18C0 8.04396 8.04396 0 18 0C27.8901 0 36 8.04396 36 18C36 27.8901 27.8901 36 18 36ZM18 1.91209C9.16483 1.91209 1.91209 9.16483 1.91209 18C1.91209 26.8352 9.0989 34.0879 18 34.0879C26.8352 34.0879 34.0879 26.9011 34.0879 18C34.0879 9.16483 26.8352 1.91209 18 1.91209Z" fill="#636466"/>
<path d="M9.69231 9.36255C9.49451 9.36255 9.36264 9.49442 9.36264 9.69222V12.5933C9.36264 12.7911 9.49451 12.923 9.69231 12.923C17.011 12.923 23.011 18.923 23.011 26.2417C23.011 26.4395 23.1429 26.5713 23.3407 26.5713H26.2418C26.4396 26.5713 26.5714 26.4395 26.5714 26.2417C26.6374 16.945 19.0549 9.36255 9.69231 9.36255Z" fill="#636466"/>
<path d="M9.69231 15.0989C9.49451 15.0989 9.36264 15.2307 9.36264 15.4285V18.3296C9.36264 18.5274 9.49451 18.6593 9.69231 18.6593C13.8462 18.6593 17.2747 22.022 17.2747 26.2417C17.2747 26.4395 17.4066 26.5714 17.6044 26.5714H20.5055C20.7033 26.5714 20.8352 26.4395 20.8352 26.2417C20.9011 20.1099 15.8901 15.0989 9.69231 15.0989Z" fill="#636466"/>
<path d="M11.8681 26.6372C13.2519 26.6372 14.3736 25.5155 14.3736 24.1317C14.3736 22.748 13.2519 21.6262 11.8681 21.6262C10.4844 21.6262 9.36264 22.748 9.36264 24.1317C9.36264 25.5155 10.4844 26.6372 11.8681 26.6372Z" fill="#636466"/>
</symbol>

<symbol width="36" height="36" viewBox="0 0 36 36"  id="footer-facebook">
<path d="M18 36C8.04396 36 0 27.8901 0 18C0 8.04396 8.04396 0 18 0C27.8901 0 36 8.04396 36 18C36 27.8901 27.8901 36 18 36ZM18 1.91209C9.16483 1.91209 1.91209 9.16483 1.91209 18C1.91209 26.8352 9.0989 34.0879 18 34.0879C26.8352 34.0879 34.0879 26.9011 34.0879 18C34.0879 9.16483 26.8352 1.91209 18 1.91209Z" fill="#636466"/>
<path fill-rule="evenodd" clip-rule="evenodd" d="M15.1648 18.0659V28.4834C15.1648 28.6153 15.2967 28.7472 15.4286 28.7472H19.3187C19.4505 28.7472 19.5824 28.6153 19.5824 28.4834V17.934H22.4176C22.5494 17.934 22.6813 17.8021 22.6813 17.6703L22.945 14.5054C22.945 14.3735 22.8132 14.2417 22.6813 14.2417H19.5824V11.9999C19.5824 11.4725 20.0439 11.0109 20.5714 11.0109H22.7472C22.8791 11.0109 23.011 10.879 23.011 10.7472V7.58234C23.011 7.45047 22.8791 7.3186 22.7472 7.3186H19.1209C16.945 7.3186 15.2308 9.03289 15.2308 11.2087V14.3076H13.3187C13.1868 14.3076 13.0549 14.4395 13.0549 14.5714V17.7362C13.0549 17.8681 13.1868 17.9999 13.3187 17.9999H15.1648V18.0659Z" fill="#636466"/>
</symbol>

<symbol width="36" height="36" viewBox="0 0 36 36"  id="footer-inst">
<path d="M18 36C8.10332 36 0 27.9631 0 18C0 8.10332 8.10332 0 18 0C27.9631 0 36 8.10332 36 18C36 27.9631 27.9631 36 18 36ZM18 1.72694C9.03321 1.72694 1.72694 9.03321 1.72694 18C1.72694 26.9668 9.03321 34.2731 18 34.2731C26.9668 34.2731 34.2731 26.9668 34.2731 18C34.3395 9.03321 26.9668 1.72694 18 1.72694ZM24.1107 10.6937C23.3801 10.6937 22.7823 11.2915 22.7823 12.0221C22.7823 12.7528 23.3801 13.3506 24.1107 13.3506C24.8413 13.3506 25.4391 12.7528 25.4391 12.0221C25.4391 11.2915 24.8413 10.6937 24.1107 10.6937ZM18.1328 12.4207C15.0775 12.4207 12.5535 14.9446 12.5535 18C12.5535 21.0553 15.0775 23.5793 18.1328 23.5793C21.1882 23.5793 23.7122 21.0553 23.7122 18C23.7122 14.9446 21.2546 12.4207 18.1328 12.4207ZM18.1328 21.5867C16.1402 21.5867 14.5461 19.9926 14.5461 18C14.5461 16.0074 16.1402 14.4133 18.1328 14.4133C20.1255 14.4133 21.7196 16.0074 21.7196 18C21.7196 19.9926 20.1255 21.5867 18.1328 21.5867ZM29.4244 13.3506C29.4244 9.56458 26.369 6.50922 22.583 6.50922H13.6162C9.83026 6.50922 6.77491 9.56458 6.77491 13.3506V22.3838C6.77491 26.1697 9.83026 29.2251 13.6162 29.2251H22.6494C26.4354 29.2251 29.4908 26.1697 29.4908 22.3838V13.3506H29.4244ZM27.2989 22.3838C27.2989 24.9742 25.1734 27.0996 22.583 27.0996H13.6162C11.0258 27.0996 8.90037 24.9742 8.90037 22.3838V13.3506C8.90037 10.7601 11.0258 8.63469 13.6162 8.63469H22.6494C25.2399 8.63469 27.3653 10.7601 27.3653 13.3506V22.3838H27.2989Z" fill="#636466"/>
</symbol>


</svg>

